<svg version="1.1" xmlns="http://www.w3.org/2000/svg" xmlns:xlink="http://www.w3.org/1999/xlink" enable-background="new 0 0 1881.25 1750" xml:space="preserve" width="1881.25" height="1750" style=""><rect id="backgroundrect" width="100%" height="100%" x="0" y="0" fill="none" stroke="none"/>









<linearGradient id="SVGID_1_" x1="0.17372021167309254" y1="-0.0651030437266196" x2="0.8262798041801948" y2="1.065101997410717">
	<stop offset="0" style="stop-color:#2368C4"/>
	<stop offset="0.5" style="stop-color:#1A5DBE"/>
	<stop offset="1" style="stop-color:#1146AC"/>
</linearGradient>


<g class="currentLayer" style=""><title>Layer 1</title><path fill="#41A5EE" d="M1771.8935200427413,2.127659559932141 H106.9627865975576 C49.504499548161476,2.127659559932141 2.925535036499233,38.49728474829338 2.925535036499233,83.36166475031321 c0,0 0,0 0,0 V445.3014290538059 l964.881485504367,221.58688474693687 l908.1237510629336,-221.58688474693687 V83.36166475031321 C1875.9307716037997,38.49728474829338 1829.3518070921375,2.127659559932141 1771.8935200427413,2.127659559932141 L1771.8935200427413,2.127659559932141 z" id="svg_1" class=""/><path fill="#2B7CD3" d="M1877.5266627536644,443.3510638475418 H2.9255350408425356 V874.3044249415398 l965.7036112459991,129.2860083281994 l908.8975164668227,-129.2860083281994 V443.3510638475418 z" id="svg_2" class=""/><path fill="#185ABD" d="M2.9255425968889095,873.4042559125085 v440.6028092624128 l908.8975014783387,88.12056185248255 l965.7035953207348,-88.12056185248255 V873.4042559125085 H2.9255425968889095 z" id="svg_3" class="" opacity="1"/><path fill="#103F91" d="M107.05141813778334,1746.8085106611252 h1666.3503891352434 c57.5072358598463,0 104.12588106896622,-35.642086292266846 104.12588106896622,-79.60899810945988 l0,0 V1312.5000003874302 H2.9255370688171647 v354.6995121642351 C2.9255370688171647,1711.1664243688583 49.54418227793708,1746.8085106611252 107.05141813778334,1746.8085106611252 L107.05141813778334,1746.8085106611252 z" id="svg_4" class=""/><path fill="url(#SVGID_1_)" d="M80.194,393.75h802.112c44.29,0,80.194,35.904,80.194,80.194v802.113  c0,44.29-35.904,80.194-80.194,80.194H80.194c-44.29,0-80.194-35.904-80.194-80.194V473.944C0,429.654,35.904,393.75,80.194,393.75z  " id="svg_9" class="" transform="translate(0, -0.531915) translate(0, -0.531915) translate(0, -0.531915) translate(0, -0.531915) translate(0, -0.531915) translate(0, -0.531915) translate(0, -0.531915) translate(0, -0.531915) translate(0, -0.531915) translate(0, -0.531915) translate(-35.6383, -120.745) translate(-198.936, 127.66) translate(-22.8723, -19.1489) translate(700.532, 23.4043)"/><path fill="#FFFFFF" d="M778.5560638313293,1022.6177867774963 c1.5750000000000002,12.381 2.625,23.144 3.106,32.375 h1.8370000000000002 c0.7000000000000006,-8.75 2.158,-19.294 4.375,-31.631 c2.217,-12.338000000000001 4.215,-22.765 5.994,-31.281 l84.35,-363.913 h109.069 l87.5,358.444 c5.084,22.288 8.723,44.881 10.894,67.637 h1.444 c1.6310000000000002,-22.047 4.671,-43.966 9.1,-65.625 l69.781,-360.631 h99.269 l-122.588,521.5 H1026.7060638313294 L943.5810638313294,804.1297867774963 c-2.406,-9.931000000000001 -5.162,-22.925 -8.181,-38.894 c-3.019,-15.969 -4.9,-27.65 -5.644,-35 h-1.444 c-0.9620000000000006,8.487 -2.8440000000000003,21.088 -5.644,37.8 c-2.8,16.713 -5.046,29.079 -6.738,37.1 l-78.138,344.269 h-117.95 L596.5990638313293,628.1667867774963 h101.062 l75.994,364.656 C775.3620638313294,1000.3047867774962 776.9810638313293,1010.2797867774964 778.5560638313293,1022.6177867774963 z" id="svg_10" class="" opacity="1"/></g></svg>