<?xml version="1.0" encoding="iso-8859-1"?>
<!-- Generator: Adobe Illustrator 19.0.0, SVG Export Plug-In . SVG Version: 6.00 Build 0)  -->
<svg version="1.1" id="Layer_1" xmlns="http://www.w3.org/2000/svg" xmlns:xlink="http://www.w3.org/1999/xlink" x="0px" y="0px"
	 viewBox="0 0 512 512" style="enable-background:new 0 0 512 512;" xml:space="preserve">
<circle style="fill:#2BA5F7;" cx="255.998" cy="255.998" r="245.419"/>
<path style="fill:#2197D8;" d="M122.901,82.46c42.77-42.776,97.406-66.443,153.315-71.037c-69.364-5.7-140.688,17.967-193.75,71.037
	c-95.846,95.846-95.846,251.23,0,347.076c53.061,53.07,124.385,76.737,193.751,71.037c-55.909-4.594-110.545-28.261-153.315-71.037
	C27.055,333.69,27.055,178.306,122.901,82.46z"/>
<path d="M429.487,245.42H266.58V82.513c0-5.842-4.737-10.579-10.579-10.579c-5.842,0-10.579,4.737-10.579,10.579v162.908H82.513
	c-5.842,0-10.579,4.737-10.579,10.579c0,5.842,4.737,10.579,10.579,10.579h162.908v162.908c0,5.842,4.737,10.579,10.579,10.579
	c5.842,0,10.579-4.737,10.579-10.579v-162.91h162.908c5.842,0,10.579-4.737,10.579-10.579S435.329,245.42,429.487,245.42z"/>
<path d="M256.001,512C114.841,512,0,397.159,0,255.999C0,114.841,114.841,0,256.001,0S512,114.841,512,255.999
	C512,397.159,397.159,512,256.001,512z M256.001,21.158c-129.493,0-234.843,105.35-234.843,234.841
	c0,129.493,105.35,234.841,234.843,234.841s234.841-105.35,234.841-234.841S385.492,21.158,256.001,21.158z"/>
<g>
</g>
<g>
</g>
<g>
</g>
<g>
</g>
<g>
</g>
<g>
</g>
<g>
</g>
<g>
</g>
<g>
</g>
<g>
</g>
<g>
</g>
<g>
</g>
<g>
</g>
<g>
</g>
<g>
</g>
</svg>
